<svg width="55" height="55" viewBox="0 0 55 55" fill="none" xmlns="http://www.w3.org/2000/svg">
<path d="M27.7875 3.39478C14.6983 3.39478 4.0564 14.0367 4.0564 27.1259C4.0564 40.2151 14.6983 50.857 27.7875 50.857C40.8767 50.857 51.5186 40.2151 51.5186 27.1259C51.5186 14.0367 40.8767 3.39478 27.7875 3.39478Z" fill="#333333"/>
<path fill-rule="evenodd" clip-rule="evenodd" d="M35.9407 30.5805C35.871 30.4805 35.8008 30.3827 35.731 30.2853C35.1633 29.4941 34.6223 28.7399 34.6223 27.2282V21.5925C34.6223 21.3966 34.6234 21.202 34.6245 21.0089C34.6369 18.8481 34.6481 16.8764 33.0898 15.368C31.7535 14.0355 29.5336 13.5653 27.8359 13.5653C24.5155 13.5653 20.8115 14.8495 20.0348 19.105C19.9526 19.557 20.2692 19.7936 20.5562 19.8601L23.9371 20.2396C24.2537 20.2229 24.4824 19.9002 24.5436 19.5752C24.8336 18.1088 26.0178 17.4043 27.3484 17.4043C28.066 17.4043 28.8809 17.6764 29.3057 18.3439C29.7436 19.0093 29.7367 19.898 29.7304 20.6926C29.7297 20.7851 29.729 20.8764 29.729 20.9659V21.4383C29.4153 21.4747 29.0866 21.5091 28.748 21.5446C26.9042 21.7379 24.7677 21.9619 23.1677 22.6893C20.9832 23.6704 19.4492 25.6666 19.4492 28.6008C19.4492 32.3612 21.7318 34.241 24.6706 34.241C27.1508 34.241 28.5081 33.6341 30.4214 31.6114C30.517 31.7551 30.6029 31.8875 30.6838 32.0122C31.1402 32.7159 31.4381 33.1752 32.4213 34.0234C32.6809 34.167 33.0243 34.1616 33.2543 33.9455C33.9509 33.303 35.2159 32.1632 35.9292 31.5434C36.214 31.3008 36.1635 30.9085 35.9407 30.5805ZM29.0764 28.9554C28.5226 29.9758 27.6405 30.6001 26.6604 30.6001C25.324 30.6001 24.5393 29.5419 24.5393 27.9765C24.5393 24.8948 27.2063 24.3355 29.7283 24.3355C29.7283 24.5199 29.73 24.7053 29.7316 24.8912C29.744 26.2862 29.7566 27.7089 29.0764 28.9554Z" fill="white"/>
<path d="M40.1105 36.73C36.7708 39.3125 31.9277 40.6866 27.7566 40.6866C21.9131 40.6866 16.6495 38.4229 12.6666 34.6542C12.3542 34.3578 12.6331 33.9532 13.0084 34.1832C17.3062 36.8043 22.6201 38.3821 28.1084 38.3821C31.8112 38.3821 35.8807 37.5775 39.6252 35.9119C40.1901 35.6615 40.6635 36.303 40.1105 36.73Z" fill="white"/>
<path d="M37.6004 34.9313C38.6756 34.7952 41.0733 34.4939 41.5002 35.0665C41.9276 35.6386 41.03 37.9913 40.6254 39.0516L40.6224 39.0594C40.5006 39.3791 40.7625 39.5067 41.0382 39.2644C42.8304 37.6942 43.2935 34.4026 42.9263 33.9256C42.5619 33.4552 39.4288 33.0479 37.5168 34.4553C37.223 34.6736 37.2733 34.9711 37.6004 34.9313Z" fill="white"/>
</svg>
