<svg width="56" height="55" viewBox="0 0 56 55" fill="none" xmlns="http://www.w3.org/2000/svg">
<path d="M51.7557 27.1259C51.7557 40.2255 41.136 50.857 28.0246 50.857C14.9131 50.857 4.29346 40.2255 4.29346 27.1259C4.29346 14.0144 14.9131 3.39478 28.0246 3.39478C41.136 3.39478 51.7557 14.0144 51.7557 27.1259Z" fill="#283544"/>
<path d="M39.1478 21.1209C39.0183 21.1965 35.9356 22.7908 35.9356 26.3256C36.0809 30.3569 39.8258 31.7707 39.8901 31.7707C39.8258 31.8462 39.3247 33.6966 37.8402 35.6362C36.662 37.307 35.3544 38.9915 33.3687 38.9915C31.4799 38.9915 30.8019 37.878 28.6225 37.878C26.282 37.878 25.6198 38.9915 23.8278 38.9915C21.8421 38.9915 20.4376 37.2167 19.1953 35.5616C17.5813 33.3954 16.2094 29.9959 16.161 26.7318C16.1283 25.0021 16.4842 23.3019 17.3875 21.8577C18.6625 19.8416 20.9388 18.473 23.4246 18.4279C25.3292 18.368 27.0243 19.6464 28.1866 19.6464C29.3005 19.6464 31.383 18.4279 33.7393 18.4279C34.7564 18.4288 37.4685 18.7143 39.1478 21.1209ZM28.0255 18.0825C27.6865 16.503 28.6225 14.9234 29.4942 13.9158C30.6082 12.6973 32.3675 11.8702 33.8846 11.8702C33.9815 13.4498 33.3677 14.9989 32.2706 16.1272C31.2862 17.3457 29.5911 18.263 28.0255 18.0825Z" fill="white"/>
</svg>
