<svg width="55" height="55" viewBox="0 0 55 55" fill="none" xmlns="http://www.w3.org/2000/svg">
<g clip-path="url(#clip0)">
<path d="M27.3381 54.2472C42.3167 54.2472 54.4594 42.1046 54.4594 27.1259C54.4594 12.1472 42.3167 0.00463867 27.3381 0.00463867C12.3594 0.00463867 0.216797 12.1472 0.216797 27.1259C0.216797 42.1046 12.3594 54.2472 27.3381 54.2472Z" fill="#F3933D"/>
<path d="M35.3591 26.4751C36.6846 25.1054 37.5085 23.2476 37.5085 21.1932C37.5085 17.2776 34.5319 14.0772 30.7281 13.6501V11.8703C30.7281 10.9346 29.9687 10.1752 29.033 10.1752C28.0974 10.1752 27.338 10.9346 27.338 11.8703V13.5653H23.9478V11.8703C23.9478 10.9346 23.1884 10.1752 22.2527 10.1752C21.317 10.1752 20.5576 10.9346 20.5576 11.8703V13.5653H18.8626C17.9269 13.5653 17.1675 14.3247 17.1675 15.2604V38.9915C17.1675 39.9272 17.9269 40.6866 18.8626 40.6866H20.5576V42.3817C20.5576 43.3174 21.317 44.0768 22.2527 44.0768C23.1884 44.0768 23.9478 43.3174 23.9478 42.3817V40.6866H27.338V42.3817C27.338 43.3174 28.0974 44.0768 29.033 44.0768C29.9687 44.0768 30.7281 43.3174 30.7281 42.3817V40.6866H31.5757C35.7795 40.6866 39.2035 37.2659 39.2035 33.0588C39.2035 30.2348 37.6441 27.7972 35.3591 26.4751ZM20.5576 16.9555H29.8806C32.2164 16.9555 34.1183 18.8574 34.1183 21.1932C34.1183 23.529 32.2164 25.4309 29.8806 25.4309H20.5576V16.9555ZM31.5757 37.2965H20.5576V28.8211H29.8806H31.5757C33.9115 28.8211 35.8134 30.7229 35.8134 33.0588C35.8134 35.3946 33.9115 37.2965 31.5757 37.2965Z" fill="#FAFAFA"/>
</g>
<defs>
<clipPath id="clip0">
<rect width="54.2426" height="54.2426" fill="white" transform="translate(0.216797 0.00463867)"/>
</clipPath>
</defs>
</svg>
