<svg width="919" height="697" viewBox="0 0 919 697" fill="none" xmlns="http://www.w3.org/2000/svg">
<mask id="mask0" mask-type="alpha" maskUnits="userSpaceOnUse" x="0" y="-3" width="919" height="700">
<rect y="-3" width="919" height="700" fill="#62D467"/>
</mask>
<g mask="url(#mask0)">
<path fill-rule="evenodd" clip-rule="evenodd" d="M912.877 -136.487C958.4 -128.774 970.507 -83.0695 1002.5 -56.806C1026.4 -37.1836 1058.54 -25.5558 1076.29 -2.33968C1098 26.047 1122.44 57.1799 1114.45 89.5937C1106.16 123.263 1074.36 153.906 1034.24 168.318C996.533 181.866 954.071 129.971 912.877 125.682C878.303 122.083 843.929 157.931 813.088 145.295C778.155 130.981 739.423 114.713 726.685 85.7189C713.903 56.6243 757.586 44.8733 768.001 15.217C779.086 -16.3491 760.272 -69.2489 789.417 -92.9097C821.428 -118.898 867.593 -144.16 912.877 -136.487Z" fill="#BEF9C0"/>
<path fill-rule="evenodd" clip-rule="evenodd" d="M664.524 747.57C650.939 778.939 642.612 812.712 612.321 836.004C581.059 860.044 538.761 875.739 494.879 878.019C452.462 880.223 413.451 863.852 375.989 848.283C340.584 833.57 309.002 815.144 284.357 790.529C257.889 764.095 224.794 735.162 229.371 701.848C233.932 668.644 283.814 652.497 307.171 624.445C330.421 596.523 332.077 558.457 365.814 537.977C402.623 515.633 452.366 500.479 497.838 508.706C542.81 516.842 563.851 555.655 597.796 579.946C630.402 603.279 680.351 615.782 693.448 648.682C706.563 681.628 678.688 714.866 664.524 747.57Z" fill="#BEF9C0"/>
<path fill-rule="evenodd" clip-rule="evenodd" d="M56.1792 -108.194C10.6559 -100.48 -1.45119 -54.7757 -33.4442 -28.5121C-57.3473 -8.88973 -89.4799 2.73807 -107.233 25.9542C-128.941 54.3408 -153.382 85.4737 -145.396 117.887C-137.101 151.557 -105.308 182.2 -65.189 196.612C-27.4775 210.16 14.9849 158.265 56.1792 153.976C90.7532 150.377 125.127 186.225 155.969 173.588C190.901 159.275 229.633 143.007 242.371 114.013C255.153 84.9182 211.47 73.1671 201.056 43.5108C189.97 11.9447 208.784 -40.955 179.64 -64.6158C147.629 -90.6043 101.463 -115.866 56.1792 -108.194Z" fill="#BEF9C0"/>
</g>
</svg>
