<svg width="90" height="90" viewBox="0 0 90 90" fill="none" xmlns="http://www.w3.org/2000/svg">
<path d="M0 24.18L42.3659 0.68208C44.0046 -0.226709 45.9954 -0.226709 47.6339 0.68208L90 24.18H0Z" fill="#AEE69C"/>
<path d="M47.634 0.681714C45.9955 -0.227075 44.0044 -0.227075 42.366 0.681714L41.5593 1.12908L83.1188 24.1798H89.9999L47.634 0.681714Z" fill="#89DAA4"/>
<path d="M45 17.9832C47.7003 17.9832 49.8893 15.7932 49.8893 13.0916C49.8893 10.39 47.7003 8.19995 45 8.19995C42.2996 8.19995 40.1106 10.39 40.1106 13.0916C40.1106 15.7932 42.2996 17.9832 45 17.9832Z" fill="#3D6D93"/>
<path d="M45 8.19995C43.9947 8.19995 43.0606 8.50388 42.2837 9.02419C43.5938 9.90169 44.4567 11.3957 44.4567 13.0916C44.4567 14.7875 43.5938 16.2813 42.2837 17.159C43.0606 17.6795 43.9947 17.9832 45 17.9832C47.7004 17.9832 49.8894 15.7932 49.8894 13.0916C49.8894 10.39 47.7004 8.19995 45 8.19995Z" fill="#335E80"/>
<path d="M84.5675 81.8471H62.7915L68.224 74.1968H79.1348L84.5675 81.8471Z" fill="#AEE69C"/>
<path d="M79.1347 74.1968H73.7021L79.1347 81.8471H84.5674L79.1347 74.1968Z" fill="#89DAA4"/>
<path d="M84.5675 32.3323H62.7915L68.224 39.9828H79.1348L84.5675 32.3323Z" fill="#AEE69C"/>
<path d="M79.1347 32.3323L73.7021 39.9828H79.1347L84.5674 32.3323H79.1347Z" fill="#89DAA4"/>
<path d="M68.2241 39.9828H79.1349V74.1968H68.2241V39.9828Z" fill="#EAF6FF"/>
<path d="M73.7021 39.9828H79.1347V74.1968H73.7021V39.9828Z" fill="#D8ECFE"/>
<path d="M27.2086 81.8471H5.43262L10.8653 74.1968H21.7761L27.2086 81.8471Z" fill="#AEE69C"/>
<path d="M27.2086 32.3323H5.43262L10.8653 39.9828H21.7761L27.2086 32.3323Z" fill="#AEE69C"/>
<path d="M10.8652 39.9828H21.776V74.1968H10.8652V39.9828Z" fill="#EAF6FF"/>
<path d="M21.776 74.1968H16.3433L21.776 81.8471H27.2085L21.776 74.1968Z" fill="#89DAA4"/>
<path d="M21.776 32.3323L16.3433 39.9828H21.776L27.2085 32.3323H21.776Z" fill="#89DAA4"/>
<path d="M16.3433 39.9828H21.7758V74.1968H16.3433V39.9828Z" fill="#D8ECFE"/>
<path d="M0 24.1797H90V28.2561C90 30.5073 88.1757 32.3324 85.9256 32.3324H4.07443C1.82426 32.3324 0 30.5075 0 28.2561L0 24.1797Z" fill="#3D6D93"/>
<path d="M84.5674 24.1797V28.2561C84.5674 30.5075 82.7431 32.3324 80.4929 32.3324H85.9255C88.1756 32.3324 89.9999 30.5075 89.9999 28.2561V24.1797H84.5674Z" fill="#335E80"/>
<path d="M1.8109 81.8472H88.1891C89.1893 81.8472 90 82.6582 90 83.6589V88.1883C90 89.1888 89.1893 90.0001 88.1891 90.0001H1.8109C0.810703 89.9999 0 89.1888 0 88.1881V83.6588C0 82.6582 0.810703 81.8472 1.8109 81.8472Z" fill="#3D6D93"/>
<path d="M88.1891 81.8472H82.7566C83.7568 81.8472 84.5675 82.6582 84.5675 83.6589V88.1883C84.5675 89.1888 83.7568 90.0001 82.7566 90.0001H88.1891C89.1893 90.0001 90 89.189 90 88.1883V83.6589C90 82.6582 89.1893 81.8472 88.1891 81.8472Z" fill="#335E80"/>
</svg>
