<svg width="55" height="55" viewBox="0 0 55 55" fill="none" xmlns="http://www.w3.org/2000/svg">
<path d="M31.5455 3.53491L31.5238 13.9775L31.5022 24.4201L30.5054 21.9959V21.9897L29.2124 45.2369C30.4837 48.32 31.1627 49.9672 31.1699 49.9734C31.1771 49.9796 31.8994 50.0169 32.7734 50.0542C35.4171 50.1661 38.6965 50.4085 41.1885 50.6758C41.7664 50.738 42.2575 50.769 42.2936 50.7442C42.3298 50.7193 42.337 40.0902 42.3298 27.1178L42.3081 3.53491H31.5455V3.53491Z" fill="url(#paint0_linear)"/>
<path d="M12.0762 3.50365V27.1114C12.0762 40.0964 12.0906 50.7317 12.1123 50.7503C12.134 50.769 13.0658 50.6882 14.1926 50.5825C15.3194 50.4768 16.8724 50.3401 17.6453 50.2841C18.8299 50.1971 22.3837 50.0044 22.7882 49.9982C22.911 49.9982 22.9182 49.4699 22.9327 39.9969L22.9544 29.9956L23.8139 32.0841C23.9439 32.4074 23.9873 32.5068 24.1173 32.8238L25.4103 9.58275C25.1358 8.91766 25.2802 9.26575 24.9696 8.50741C23.915 5.94027 23.0194 3.77093 22.9833 3.67148L22.911 3.49744H12.0762V3.50365Z" fill="url(#paint1_linear)"/>
<path d="M12.0762 3.50365L22.9472 30.0141V30.0017L23.8068 32.0902C28.5813 43.72 31.1456 49.9606 31.1601 49.9731C31.1673 49.9793 31.8896 50.0166 32.7636 50.0539C35.4073 50.1658 38.6867 50.4082 41.1787 50.6755C41.7494 50.7376 42.2478 50.7687 42.2767 50.7438L31.4996 24.4136V24.4199L30.5027 21.9957C29.5276 19.6275 28.8775 18.0424 24.9553 8.50738C23.9007 5.94025 23.005 3.77093 22.9689 3.67148L22.8966 3.49744H17.4864L12.0762 3.50365Z" fill="#E30A17"/>
<defs>
<linearGradient id="paint0_linear" x1="47.184" y1="38.8397" x2="29.9581" y2="46.4046" gradientUnits="userSpaceOnUse">
<stop stop-color="#B20610"/>
<stop offset="0.255959" stop-color="#B20610"/>
<stop offset="1" stop-color="#590004"/>
</linearGradient>
<linearGradient id="paint1_linear" x1="6.85248" y1="13.8554" x2="25.4818" y2="5.76857" gradientUnits="userSpaceOnUse">
<stop stop-color="#B20610"/>
<stop offset="0.255959" stop-color="#B20610"/>
<stop offset="1" stop-color="#590004"/>
</linearGradient>
</defs>
</svg>
