<svg width="56" height="55" viewBox="0 0 56 55" fill="none" xmlns="http://www.w3.org/2000/svg">
<path d="M43.0998 16.3066C43.6281 12.8621 43.0998 10.5657 41.2508 8.44603C39.2256 6.06137 35.5275 5.08984 30.7728 5.08984H17.125C16.1565 5.08984 15.364 5.79641 15.1879 6.76794L9.46468 42.9795C9.37663 43.686 9.90493 44.3043 10.6093 44.3043H19.0621L18.4458 48.0138C18.3577 48.632 18.798 49.1619 19.5024 49.1619H26.6345C27.515 49.1619 28.2194 48.5437 28.3074 47.7488L29.8043 38.3868C29.8923 37.5919 30.6848 36.9737 31.4772 36.9737H32.5338C39.4017 36.9737 44.8608 34.1474 46.4458 26.0219C47.0621 22.6657 46.798 19.7511 45.0369 17.808C44.5086 17.1898 43.8923 16.7482 43.0998 16.3066" fill="#009CDE"/>
<path d="M43.0998 16.3066C43.6281 12.8621 43.0998 10.5657 41.2508 8.44603C39.2256 6.06137 35.5275 5.08984 30.7728 5.08984H17.125C16.1565 5.08984 15.364 5.79641 15.1879 6.76794L9.46468 42.9795C9.37663 43.686 9.90493 44.3043 10.6093 44.3043H19.0621L21.0873 31.2328C21.2634 30.2613 22.0559 29.5547 23.0244 29.5547H27.0747C34.9992 29.5547 41.1627 26.3752 42.9237 17.0132C43.0118 16.8365 43.0118 16.5715 43.0998 16.3066Z" fill="#012169"/>
<path d="M23.4647 16.3949C23.5527 15.7767 24.3452 14.9818 25.1376 14.9818H35.8797C37.1124 14.9818 38.3451 15.0701 39.4017 15.2467C40.3703 15.4234 42.1313 15.865 43.0118 16.3949C43.5401 12.9504 43.0118 10.6541 41.1627 8.53435C39.2256 6.06137 35.5275 5.08984 30.7728 5.08984H17.125C16.1565 5.08984 15.364 5.79641 15.1879 6.76794L9.46468 42.9795C9.37663 43.686 9.90493 44.3043 10.6093 44.3043H19.0621L23.4647 16.3949V16.3949Z" fill="#003087"/>
</svg>
