<svg width="90" height="90" viewBox="0 0 90 90" fill="none" xmlns="http://www.w3.org/2000/svg">
<g clip-path="url(#clip0)">
<path d="M24.5677 21.73H19.1353L24.5677 49.3471C24.5677 50.8464 25.7828 51.9728 27.284 51.9728C28.7833 51.9728 30.0002 50.8464 30.0002 49.3471L35.4327 36.8515L30.0002 27.1626C30.0002 24.1746 27.5556 21.73 24.5677 21.73Z" fill="#1B74D6"/>
<path d="M5.43345 21.73H10.8659L5.43345 49.2565C5.43345 50.7559 4.21658 51.9728 2.71721 51.9728C1.21785 51.9728 0.000976562 50.7559 0.000976562 49.2565V27.1625C0.000976562 24.1746 2.44559 21.73 5.43345 21.73Z" fill="#54A5FF"/>
<path d="M24.5678 27.1625C24.5678 24.1746 22.1232 21.73 19.1353 21.73H10.8658C7.87796 21.73 5.43335 24.1746 5.43335 27.1625V75.7078C5.43335 77.5995 6.96694 79.1331 8.85889 79.1331C10.7507 79.1331 12.2844 77.5995 12.2844 75.7078V49.2565H17.7169V75.7078C17.7169 77.5995 19.2505 79.1331 21.1424 79.1331C23.0342 79.1331 24.5678 77.5995 24.5678 75.7078V27.1625Z" fill="#1E8AFF"/>
<path d="M54.5672 21.73H49.1348L54.5672 49.3471C54.5672 50.8464 55.7823 51.9728 57.2835 51.9728C58.7829 51.9728 59.9997 50.8464 59.9997 49.3471L65.4322 36.8515L59.9997 27.1626C59.9997 24.1746 57.5551 21.73 54.5672 21.73Z" fill="#89C1FF"/>
<path d="M35.4327 21.73H40.8652L35.4327 49.2565C35.4327 50.7559 34.2158 51.9728 32.7165 51.9728C31.2171 51.9728 30.0002 50.7559 30.0002 49.2565V27.1625C30.0002 24.1746 32.4449 21.73 35.4327 21.73Z" fill="#DBEBFF"/>
<path d="M54.5673 27.1625C54.5673 24.1746 52.1227 21.73 49.1348 21.73H40.8653C37.8775 21.73 35.4329 24.1746 35.4329 27.1625V75.7078C35.4329 77.5995 36.9665 79.1331 38.8584 79.1331C40.7502 79.1331 42.2839 77.5995 42.2839 75.7078V49.2565H47.7164V75.7078C47.7164 77.5995 49.25 79.1331 51.1419 79.1331C53.0337 79.1331 54.5673 77.5995 54.5673 75.7078V27.1625Z" fill="#B8D8FF"/>
<path d="M84.5665 21.73H79.134L84.5665 49.3471C84.5665 50.8464 85.7816 51.9728 87.2827 51.9728C88.7821 51.9728 89.999 50.8464 89.999 49.3471V27.1625C89.999 24.1746 87.5544 21.73 84.5665 21.73Z" fill="#89C1FF"/>
<path d="M65.4322 21.73H70.8647L65.4322 49.2565C65.4322 50.7559 64.2154 51.9728 62.716 51.9728C61.2166 51.9728 59.9998 50.7559 59.9998 49.2565V27.1625C59.9998 24.1746 62.4444 21.73 65.4322 21.73Z" fill="#DBEBFF"/>
<path d="M84.5663 27.1625C84.5663 24.1746 82.1217 21.73 79.1339 21.73H70.8644C67.8765 21.73 65.4319 24.1746 65.4319 27.1625V75.7078C65.4319 77.5995 66.9655 79.1331 68.8574 79.1331C70.7492 79.1331 72.283 77.5995 72.283 75.7078V49.2565H77.7154V75.7078C77.7154 77.5995 79.249 79.1331 81.141 79.1331C83.0327 79.1331 84.5663 77.5995 84.5663 75.7078V27.1625Z" fill="#B8D8FF"/>
<path d="M14.9412 0V16.2974C19.4416 16.2974 23.0899 12.6492 23.0899 8.14871C23.0899 3.64827 19.4416 0 14.9412 0Z" fill="#1B74D6"/>
<path d="M17.6574 8.14871C17.6574 3.64827 16.4413 0 14.9412 0C10.4407 0 6.79248 3.64827 6.79248 8.14871C6.79248 12.6492 10.4407 16.2974 14.9412 16.2974C16.4413 16.2974 17.6574 12.6492 17.6574 8.14871Z" fill="#1E8AFF"/>
<path d="M74.9397 0V16.2974C79.4401 16.2974 83.0884 12.6492 83.0884 8.14871C83.0884 3.64827 79.4401 0 74.9397 0Z" fill="#89C1FF"/>
<path d="M77.656 8.14871C77.656 3.64827 76.4398 0 74.9397 0C70.4393 0 66.791 3.64827 66.791 8.14871C66.791 12.6492 70.4393 16.2974 74.9397 16.2974C76.4398 16.2974 77.656 12.6492 77.656 8.14871Z" fill="#B8D8FF"/>
<path d="M44.9998 0V16.2974C49.5002 16.2974 53.1485 12.6492 53.1485 8.14871C53.1485 3.64827 49.5002 0 44.9998 0Z" fill="#89C1FF"/>
<path d="M47.716 8.14871C47.716 3.64827 46.4999 0 44.9998 0C40.4993 0 36.8511 3.64827 36.8511 8.14871C36.8511 12.6492 40.4993 16.2974 44.9998 16.2974C46.5 16.2974 47.716 12.6492 47.716 8.14871Z" fill="#B8D8FF"/>
<path d="M27.284 84.5675H21.8516V90H27.284C28.7841 90 30.0003 88.7838 30.0003 87.2837C30.0003 85.7837 28.7841 84.5675 27.284 84.5675Z" fill="#FFB739"/>
<path d="M24.5679 87.2837C24.5679 85.7837 23.3517 84.5675 21.8517 84.5675H2.71721C1.21713 84.5675 0.000976562 85.7837 0.000976562 87.2837C0.000976562 88.7838 1.21713 90 2.71721 90H21.8517C23.3517 90 24.5679 88.7838 24.5679 87.2837Z" fill="#FFD17E"/>
</g>
<defs>
<clipPath id="clip0">
<rect width="90" height="90" fill="white"/>
</clipPath>
</defs>
</svg>
