<svg width="90" height="90" viewBox="0 0 90 90" fill="none" xmlns="http://www.w3.org/2000/svg">
<g clip-path="url(#clip0)">
<path d="M78.7353 11.99C68.8211 11.99 59.2098 8.57405 51.5193 2.31746C47.7221 -0.771835 42.278 -0.771835 38.4809 2.31746C30.7905 8.57422 21.179 11.99 11.2651 11.99C8.16926 11.99 5.65967 14.4996 5.65967 17.5954V32.6187C5.65967 51.8912 14.338 70.1394 29.288 82.3022L33.9022 86.0561C40.3665 91.3153 49.6344 91.3153 56.0987 86.0561L60.7128 82.3022C75.6627 70.1395 84.3412 51.8905 84.3412 32.618C84.3412 26.8502 84.3412 21.4299 84.3412 17.5942C84.3407 14.4983 81.8311 11.99 78.7353 11.99Z" fill="url(#paint0_linear)"/>
<path d="M45.0002 85.054C43.9195 85.054 42.8624 84.6783 42.024 83.9962L33.1989 76.8163C26.7529 71.572 21.4592 64.8333 17.8902 57.3289C14.3213 49.8245 12.4348 41.4654 12.4348 33.1556V21.2336C12.4348 19.7913 13.614 18.5648 15.0543 18.4888C24.8762 17.9694 34.3715 14.3272 42.024 8.10134C42.8626 7.41911 43.9195 7.04358 45.0002 7.04358C46.081 7.04358 47.1379 7.41911 47.9763 8.10117C55.6292 14.3272 65.1247 17.9694 74.9465 18.4888C76.3865 18.5648 77.5655 19.7911 77.5655 21.2332V33.1549C77.5655 41.4649 75.679 49.8239 72.1101 57.3285C68.5412 64.8333 63.2476 71.572 56.8016 76.8163L47.9763 83.9962C47.1379 84.6785 46.081 85.054 45.0002 85.054Z" fill="url(#paint1_linear)"/>
<path d="M45 81.7627C44.0104 81.7627 43.0426 81.4188 42.275 80.7943L34.1946 74.2204C28.2925 69.4186 23.4456 63.2485 20.1779 56.3774C16.9102 49.5064 15.1829 41.8527 15.1829 34.244V23.328C15.1829 22.0075 16.2625 20.8846 17.5813 20.8147C26.5742 20.3391 35.2684 17.0044 42.275 11.3039C43.0428 10.6793 44.0106 10.3352 45 10.3352C45.9897 10.3352 46.9575 10.6791 47.7249 11.3037C54.7319 17.0044 63.4262 20.3391 72.4192 20.8147C73.7377 20.8844 74.8172 22.0071 74.8172 23.3275V34.2431C74.8172 41.8518 73.0899 49.5055 69.8222 56.3769C66.5545 63.2483 61.7076 69.4184 55.8055 74.2202L47.7249 80.7941C46.9575 81.4188 45.9897 81.7627 45 81.7627Z" fill="url(#paint2_linear)"/>
<path d="M84.3406 17.5938C84.3406 14.4979 81.831 11.9896 78.7352 11.9896C68.8211 11.9896 59.2098 8.57365 51.5192 2.31706C49.6205 0.772412 47.3104 0 45 0V90C48.933 90 52.866 88.6853 56.0982 86.0557L60.7124 82.3018C75.6623 70.1391 84.3406 51.8901 84.3408 32.6176C84.3406 26.8496 84.3406 21.4294 84.3406 17.5938Z" fill="url(#paint3_linear)"/>
<path d="M74.3692 26.19C72.6061 24.427 69.7476 24.7884 67.9845 26.5514L45.9876 48.5481C45.7732 48.7625 45.1672 49.1689 44.9999 49.1689C44.8326 49.1689 44.588 49.1239 44.3735 48.9093L35.9417 40.4776C34.1786 38.7146 31.5008 38.7146 29.7377 40.4776C27.9746 42.2407 27.7939 44.7377 29.557 46.5008L63.2127 80.1566C75.7649 68.8249 83.3272 52.9805 84.2452 36.1L74.3692 26.19Z" fill="url(#paint4_linear)"/>
<path d="M60.7125 82.3016C71.3832 73.6203 78.8576 61.8379 82.2629 48.7962L61.9185 28.4519C57.6726 23.9675 51.6635 21.5308 45.0003 21.5308C32.3052 21.5306 22.066 31.7699 22.0662 44.4651C22.0662 51.1282 24.5029 57.1372 28.9875 61.3831L53.4389 85.8345C54.1859 86.5815 55.3771 86.6426 56.1966 85.9759L60.7125 82.3016Z" fill="url(#paint5_linear)"/>
<path d="M45.0002 67.7599C57.8659 67.7599 68.2955 57.3302 68.2955 44.4645C68.2955 31.5989 57.8659 21.1692 45.0002 21.1692C32.1345 21.1692 21.7048 31.5989 21.7048 44.4645C21.7048 57.3302 32.1345 67.7599 45.0002 67.7599Z" fill="url(#paint6_linear)"/>
<path d="M63.8115 30.7244L45.9876 48.5481C45.7732 48.7625 45.1672 49.1689 44.9999 49.1689C44.8326 49.1689 44.588 49.1239 44.3735 48.9093L35.9417 40.4775C34.1786 38.7146 31.5008 38.7146 29.7377 40.4775C27.9746 42.2407 27.7939 44.7377 29.557 46.5008L50.227 67.1708C60.5758 64.7982 68.2953 55.5331 68.2953 44.4645C68.2953 39.3257 66.6299 34.5765 63.8115 30.7244Z" fill="url(#paint7_linear)"/>
<path d="M45.0001 57.8368C42.3517 57.8368 39.8617 56.8054 37.989 54.9327L29.5572 46.5011C27.7941 44.738 27.7941 41.8795 29.5572 40.1164C31.3201 38.3534 34.1786 38.3534 35.9419 40.1164L44.3737 48.5481C44.5883 48.7627 44.8329 48.8077 45.0001 48.8077C45.1674 48.8077 45.412 48.7627 45.6266 48.5481L67.9847 26.19C69.7479 24.4271 72.6063 24.4271 74.3694 26.19C76.1326 27.9531 76.1326 30.8116 74.3694 32.5747L52.0113 54.9327C50.1386 56.8054 47.6486 57.8368 45.0001 57.8368Z" fill="url(#paint8_linear)"/>
</g>
<defs>
<linearGradient id="paint0_linear" x1="12.0384" y1="4.24928" x2="79.8853" y2="72.0962" gradientUnits="userSpaceOnUse">
<stop stop-color="#B5DBFF"/>
<stop offset="1" stop-color="#76E2F8"/>
</linearGradient>
<linearGradient id="paint1_linear" x1="89.2713" y1="82.5617" x2="29.241" y2="22.5312" gradientUnits="userSpaceOnUse">
<stop stop-color="#B5DBFF" stop-opacity="0"/>
<stop offset="0.2428" stop-color="#93CEF6" stop-opacity="0.243"/>
<stop offset="0.5763" stop-color="#6ABFEC" stop-opacity="0.576"/>
<stop offset="0.8403" stop-color="#51B5E5" stop-opacity="0.84"/>
<stop offset="1" stop-color="#48B2E3"/>
</linearGradient>
<linearGradient id="paint2_linear" x1="33.3934" y1="27.3387" x2="59.7634" y2="53.7087" gradientUnits="userSpaceOnUse">
<stop stop-color="#EDF5FF"/>
<stop offset="1" stop-color="#D5E8FE"/>
</linearGradient>
<linearGradient id="paint3_linear" x1="53.1766" y1="46.5161" x2="-0.998655" y2="20.512" gradientUnits="userSpaceOnUse">
<stop stop-color="#B5DBFF" stop-opacity="0"/>
<stop offset="0.1734" stop-color="#8FC5E9" stop-opacity="0.173"/>
<stop offset="0.4541" stop-color="#56A4C8" stop-opacity="0.454"/>
<stop offset="0.6955" stop-color="#2D8DB1" stop-opacity="0.696"/>
<stop offset="0.8853" stop-color="#147EA2" stop-opacity="0.885"/>
<stop offset="1" stop-color="#0B799D"/>
</linearGradient>
<linearGradient id="paint4_linear" x1="73.9009" y1="57.0323" x2="55.3609" y2="42.9466" gradientUnits="userSpaceOnUse">
<stop stop-color="#B5DBFF" stop-opacity="0"/>
<stop offset="0.1734" stop-color="#8FC5E9" stop-opacity="0.173"/>
<stop offset="0.4541" stop-color="#56A4C8" stop-opacity="0.454"/>
<stop offset="0.6955" stop-color="#2D8DB1" stop-opacity="0.696"/>
<stop offset="0.8853" stop-color="#147EA2" stop-opacity="0.885"/>
<stop offset="1" stop-color="#0B799D"/>
</linearGradient>
<linearGradient id="paint5_linear" x1="70.78" y1="70.2446" x2="39.8802" y2="39.3448" gradientUnits="userSpaceOnUse">
<stop stop-color="#B5DBFF" stop-opacity="0"/>
<stop offset="0.1734" stop-color="#8FC5E9" stop-opacity="0.173"/>
<stop offset="0.4541" stop-color="#56A4C8" stop-opacity="0.454"/>
<stop offset="0.6955" stop-color="#2D8DB1" stop-opacity="0.696"/>
<stop offset="0.8853" stop-color="#147EA2" stop-opacity="0.885"/>
<stop offset="1" stop-color="#0B799D"/>
</linearGradient>
<linearGradient id="paint6_linear" x1="34.1651" y1="33.6296" x2="56.6187" y2="56.083" gradientUnits="userSpaceOnUse">
<stop stop-color="#B9DD39"/>
<stop offset="1" stop-color="#90CC1C"/>
</linearGradient>
<linearGradient id="paint7_linear" x1="66.1739" y1="58.1024" x2="57.8246" y2="49.7528" gradientUnits="userSpaceOnUse">
<stop stop-color="#66BB00" stop-opacity="0"/>
<stop offset="1" stop-color="#66BB00"/>
</linearGradient>
<linearGradient id="paint8_linear" x1="42.9499" y1="27.3319" x2="66.2057" y2="50.5878" gradientUnits="userSpaceOnUse">
<stop stop-color="#0B799D"/>
<stop offset="1" stop-color="#07485E"/>
</linearGradient>
<clipPath id="clip0">
<rect width="90" height="90" fill="white"/>
</clipPath>
</defs>
</svg>
