<svg width="919" height="597" viewBox="0 0 919 597" fill="none" xmlns="http://www.w3.org/2000/svg">
<rect y="-3" width="919" height="600" fill="#62D467"/>
<mask id="mask0" mask-type="alpha" maskUnits="userSpaceOnUse" x="0" y="-3" width="919" height="600">
<rect y="-3" width="919" height="600" fill="#62D467"/>
</mask>
<g mask="url(#mask0)">
<path fill-rule="evenodd" clip-rule="evenodd" d="M912.877 -117.418C958.4 -110.806 970.507 -71.631 1002.5 -49.1194C1026.4 -32.3002 1058.54 -22.3335 1076.29 -2.43396C1098 21.8975 1122.44 48.5828 1114.45 76.366C1106.16 105.226 1074.36 131.491 1034.24 143.844C996.533 155.457 954.071 110.975 912.877 107.299C878.303 104.214 843.929 134.941 813.088 124.11C778.155 111.841 739.423 97.8973 726.685 73.0448C713.903 48.1066 757.586 38.0343 768.001 12.6146C779.086 -14.4421 760.272 -59.7847 789.417 -80.0654C821.428 -102.341 867.593 -123.994 912.877 -117.418Z" fill="#BEF9C0"/>
<path fill-rule="evenodd" clip-rule="evenodd" d="M664.524 640.346C650.939 667.233 642.612 696.181 612.321 716.146C581.059 736.752 538.761 750.205 494.879 752.159C452.462 754.048 413.451 740.016 375.989 726.672C340.584 714.06 309.002 698.266 284.357 677.168C257.889 654.51 224.794 629.71 229.371 601.155C233.932 572.695 283.814 558.855 307.171 534.81C330.421 510.877 332.077 478.249 365.814 460.695C402.623 441.543 452.366 428.554 497.838 435.605C542.81 442.579 563.851 475.847 597.796 496.668C630.402 516.668 680.351 527.385 693.448 555.585C706.563 583.824 678.688 612.314 664.524 640.346Z" fill="#BEF9C0"/>
<path fill-rule="evenodd" clip-rule="evenodd" d="M56.1792 -93.1658C10.6559 -86.5545 -1.45119 -47.3791 -33.4442 -24.8675C-57.3473 -8.04829 -89.4799 1.9184 -107.233 21.8179C-128.941 46.1493 -153.382 72.8347 -145.396 100.618C-137.101 129.477 -105.308 155.743 -65.189 168.096C-27.4775 179.709 14.9849 135.227 56.1792 131.551C90.7532 128.466 125.127 159.193 155.969 148.362C190.901 136.093 229.633 122.149 242.371 97.2967C255.153 72.3585 211.47 62.2861 201.056 36.8665C189.97 9.80981 208.784 -35.5328 179.64 -55.8135C147.629 -78.0893 101.463 -99.7424 56.1792 -93.1658Z" fill="#BEF9C0"/>
</g>
</svg>
