<svg width="167" height="167" viewBox="0 0 167 167" fill="none" xmlns="http://www.w3.org/2000/svg">
<path fill-rule="evenodd" clip-rule="evenodd" d="M118.888 38.0976C101.049 23.753 77.1398 20.3951 56.7509 29.3714C54.0736 30.5499 49.7635 33.0788 47.0215 35.0796C44.1857 37.1487 39.169 41.9038 36.9492 44.6262C26.6019 57.3163 22.3407 73.9701 25.191 90.5802C26.6013 98.7983 29.7435 106.768 34.393 113.919C38.834 120.749 46.1379 128.052 52.952 132.476C65.6475 140.717 80.8506 144.114 95.2085 141.919C105.104 140.406 114.677 136.16 122.257 129.921C125.27 127.442 130.012 122.378 132.143 119.363C141.288 106.43 144.481 90.8867 141.306 74.7575C138.512 60.5605 130.471 47.4125 118.888 38.0976ZM127.266 49.153C136.07 60.2623 140.643 73.2831 140.521 86.8928C140.417 98.5713 137.216 108.753 130.685 118.178C129.265 120.228 128.397 121.209 124.915 124.703C120.728 128.904 119.555 129.877 115.847 132.226C109.04 136.537 101.052 139.335 92.8739 140.271C83.4351 141.352 73.2411 139.899 64.0484 136.161C52.9059 131.631 42.9572 123.377 36.0481 112.93C27.3125 99.7209 24.2253 83.0529 27.6805 67.7514C31.0577 52.7962 41.2726 39.5019 54.7032 32.5832C63.6434 27.9774 72.2357 26.0649 82.5838 26.3774C99.4815 26.8877 116.495 35.5597 127.266 49.153ZM85.6663 46.691C82.2447 44.9834 76.8763 44.1154 73.4535 44.7165C72.4952 44.8847 71.777 45.0882 71.8575 45.1686C71.938 45.2492 72.7938 45.257 73.7591 45.186C75.7947 45.0364 78.3796 45.3778 80.2144 46.0385C81.9802 46.6742 85.7459 49.2481 86.7619 50.5137C88.3836 52.5339 89.5598 55.2167 89.8332 57.5187C90.062 59.4454 90.4993 58.3527 90.5038 55.8429C90.5093 52.6863 89.7789 50.6413 87.9239 48.6218C87.0625 47.6839 86.2311 46.9729 85.6663 46.691ZM115.443 76.4855C114.103 75.8044 112.21 75.3561 110.423 75.2967C108.917 75.2466 107.027 75.5392 107.028 75.8225C107.027 75.8998 107.499 76.011 108.075 76.0696C112.348 76.5037 115.638 78.6827 118.278 82.8261C120.261 85.9397 121.022 89.2038 120.574 92.6724C120.326 94.5965 120.542 95.1302 120.962 93.6315C121.751 90.8183 121.295 85.7301 119.903 81.8143C119.374 80.325 119.086 79.8666 117.834 78.5227C116.904 77.5249 116.041 76.7897 115.443 76.4855ZM73.3147 56.3048C70.8113 55.1555 67.7524 55.057 64.6399 56.0257C63.1565 56.4872 62.6985 56.7401 62.0874 57.435C61.0601 58.6034 61.4369 59.0804 63.4122 59.1121C66.2687 59.1577 68.9699 60.3761 71.2189 62.6329C72.8353 64.2553 74.1114 66.8251 74.627 69.4964C74.9594 71.218 75.0524 71.4216 75.5071 71.4209C76.3464 71.4196 77.8141 69.7164 78.3272 68.1481C78.9082 66.3719 78.8742 63.596 78.2492 61.7917C77.5647 59.8151 75.1763 57.1593 73.3147 56.3048ZM104.446 87.9451C103.682 87.6331 102.545 87.2847 101.918 87.171C99.8605 86.7981 96.9498 87.3519 95.509 88.3906C94.774 88.9202 93.619 90.7262 93.8608 90.968C93.9378 91.0451 94.5193 91.108 95.1526 91.1079C96.5149 91.1078 98.7775 91.8109 100.551 92.7853C101.508 93.3115 102.2 93.9006 103.346 95.1663C105.34 97.3688 106.355 99.7124 106.394 102.203C106.424 104.084 106.738 104.51 107.698 103.967C109.038 103.209 110.115 99.6193 109.974 96.383C109.855 93.6456 109.225 92.1678 107.285 90.0769C106.033 88.7281 105.642 88.4348 104.446 87.9451ZM76.3454 62.0067C76.5903 62.6404 76.8514 63.6811 76.9252 64.3193C77.0628 65.5042 76.7349 68.3894 76.4627 68.3895C76.38 68.3895 76.1205 67.7443 75.886 66.9558C75.343 65.1284 73.8124 62.5407 72.4964 61.2247C71.3184 60.0468 68.8999 58.6116 67.1008 58.0227C66.4188 57.7996 65.9205 57.5611 65.9936 57.4927C66.0667 57.4243 66.689 57.2919 67.3768 57.1984C69.0405 56.9725 71.5425 57.3516 72.6297 57.9944C73.1128 58.2802 73.616 58.5571 73.7477 58.6097C74.3222 58.8396 75.938 60.9525 76.3454 62.0067ZM107.226 92.7734C107.621 93.4463 108.043 94.5344 108.164 95.1915C108.377 96.345 108.362 99.0512 108.142 99.0462C108.083 99.0447 107.592 98.1525 107.049 97.0631C104.964 92.8714 102.336 90.8307 97.5442 89.6814C97.061 89.5655 96.7399 89.3966 96.8304 89.3061C97.2046 88.9319 100.539 88.6861 101.824 88.9376C104.338 89.4304 105.926 90.5578 107.226 92.7734ZM56.2204 77.3013C55.6418 77.3552 55.3959 77.9358 54.9273 80.3552C54.1562 84.335 54.2632 88.8754 55.2158 92.5968C56.3332 96.9618 57.8307 99.502 61.7246 103.637C64.1897 106.256 64.8608 106.856 66.7675 108.144C69.5693 110.038 71.284 110.91 74.1223 111.888C78.4508 113.379 83.5973 113.456 87.6279 112.092C90.6641 111.063 90.6625 110.277 87.623 109.708C83.4088 108.92 78.0215 106.629 74.1248 103.97C72.6383 102.956 71.39 101.834 68.2994 98.738C64.847 95.2788 64.1975 94.5355 62.9873 92.6576C60.3528 88.5696 58.3323 83.6879 57.6279 79.7086C57.2821 77.7551 56.9756 77.231 56.2204 77.3013ZM56.7362 81.8431C57.5285 85.0894 59.409 89.4956 61.2039 92.3113C62.9771 95.0927 64.1378 96.4749 67.6043 99.9331C70.4187 102.741 71.5789 103.761 73.3674 104.999C77.1358 107.608 81.4512 109.591 85.7757 110.702L87.2049 111.069L86.1126 111.375C80.8947 112.839 73.9675 111.406 68.0996 107.65C65.4935 105.981 60.073 100.48 58.7543 98.1646C56.6445 94.4605 55.4645 89.692 55.5926 85.3872C55.6711 82.745 56.0182 79.9379 56.2388 80.1585C56.3016 80.2214 56.5254 80.9794 56.7362 81.8431Z" fill="white"/>
</svg>
