<svg width="365" height="165" viewBox="0 0 365 165" fill="none" xmlns="http://www.w3.org/2000/svg">
<circle cx="3.1565" cy="162.268" r="2.71314" transform="rotate(-90 3.1565 162.268)" fill="#70C217"/>
<circle cx="3.15552" cy="122.475" r="2.71314" transform="rotate(-90 3.15552 122.475)" fill="#70C217"/>
<circle cx="3.15552" cy="82.6828" r="2.71314" transform="rotate(-90 3.15552 82.6828)" fill="#70C217"/>
<circle cx="3.15552" cy="42.8901" r="2.71314" transform="rotate(-90 3.15552 42.8901)" fill="#70C217"/>
<circle cx="3.15552" cy="3.09744" r="2.71314" transform="rotate(-90 3.15552 3.09744)" fill="#70C217"/>
<circle cx="42.948" cy="162.268" r="2.71314" transform="rotate(-90 42.948 162.268)" fill="#70C217"/>
<circle cx="42.948" cy="122.476" r="2.71314" transform="rotate(-90 42.948 122.476)" fill="#70C217"/>
<circle cx="42.948" cy="82.6828" r="2.71314" transform="rotate(-90 42.948 82.6828)" fill="#70C217"/>
<circle cx="42.948" cy="42.8901" r="2.71314" transform="rotate(-90 42.948 42.8901)" fill="#70C217"/>
<circle cx="42.948" cy="3.09744" r="2.71314" transform="rotate(-90 42.948 3.09744)" fill="#70C217"/>
<circle cx="82.741" cy="162.268" r="2.71314" transform="rotate(-90 82.741 162.268)" fill="#70C217"/>
<circle cx="82.741" cy="122.476" r="2.71314" transform="rotate(-90 82.741 122.476)" fill="#70C217"/>
<circle cx="82.741" cy="82.6828" r="2.71314" transform="rotate(-90 82.741 82.6828)" fill="#70C217"/>
<circle cx="82.741" cy="42.8901" r="2.71314" transform="rotate(-90 82.741 42.8901)" fill="#70C217"/>
<circle cx="82.741" cy="3.09744" r="2.71314" transform="rotate(-90 82.741 3.09744)" fill="#70C217"/>
<circle cx="122.533" cy="162.268" r="2.71314" transform="rotate(-90 122.533 162.268)" fill="#70C217"/>
<circle cx="122.533" cy="122.476" r="2.71314" transform="rotate(-90 122.533 122.476)" fill="#70C217"/>
<circle cx="122.533" cy="82.6828" r="2.71314" transform="rotate(-90 122.533 82.6828)" fill="#70C217"/>
<circle cx="122.533" cy="42.8901" r="2.71314" transform="rotate(-90 122.533 42.8901)" fill="#70C217"/>
<circle cx="122.533" cy="3.09744" r="2.71314" transform="rotate(-90 122.533 3.09744)" fill="#70C217"/>
<circle cx="162.326" cy="162.268" r="2.71314" transform="rotate(-90 162.326 162.268)" fill="#70C217"/>
<circle cx="162.326" cy="122.476" r="2.71314" transform="rotate(-90 162.326 122.476)" fill="#70C217"/>
<circle cx="162.326" cy="82.6828" r="2.71314" transform="rotate(-90 162.326 82.6828)" fill="#70C217"/>
<circle cx="162.326" cy="42.8901" r="2.71314" transform="rotate(-90 162.326 42.8901)" fill="#70C217"/>
<circle cx="162.326" cy="3.09747" r="2.71314" transform="rotate(-90 162.326 3.09747)" fill="#70C217"/>
<circle cx="202.119" cy="162.268" r="2.71314" transform="rotate(-90 202.119 162.268)" fill="#70C217"/>
<circle cx="202.119" cy="122.476" r="2.71314" transform="rotate(-90 202.119 122.476)" fill="#70C217"/>
<circle cx="202.119" cy="82.6828" r="2.71314" transform="rotate(-90 202.119 82.6828)" fill="#70C217"/>
<circle cx="202.119" cy="42.8901" r="2.71314" transform="rotate(-90 202.119 42.8901)" fill="#70C217"/>
<circle cx="202.119" cy="3.09747" r="2.71314" transform="rotate(-90 202.119 3.09747)" fill="#70C217"/>
<circle cx="241.912" cy="162.268" r="2.71314" transform="rotate(-90 241.912 162.268)" fill="#70C217"/>
<circle cx="241.912" cy="122.476" r="2.71314" transform="rotate(-90 241.912 122.476)" fill="#70C217"/>
<circle cx="241.912" cy="82.6828" r="2.71314" transform="rotate(-90 241.912 82.6828)" fill="#70C217"/>
<circle cx="241.912" cy="42.8901" r="2.71314" transform="rotate(-90 241.912 42.8901)" fill="#70C217"/>
<circle cx="241.912" cy="3.09747" r="2.71314" transform="rotate(-90 241.912 3.09747)" fill="#70C217"/>
<circle cx="281.704" cy="162.268" r="2.71314" transform="rotate(-90 281.704 162.268)" fill="#70C217"/>
<circle cx="281.704" cy="122.476" r="2.71314" transform="rotate(-90 281.704 122.476)" fill="#70C217"/>
<circle cx="281.704" cy="82.6828" r="2.71314" transform="rotate(-90 281.704 82.6828)" fill="#70C217"/>
<circle cx="281.704" cy="42.8901" r="2.71314" transform="rotate(-90 281.704 42.8901)" fill="#70C217"/>
<circle cx="281.704" cy="3.09747" r="2.71314" transform="rotate(-90 281.704 3.09747)" fill="#70C217"/>
<circle cx="321.497" cy="162.268" r="2.71314" transform="rotate(-90 321.497 162.268)" fill="#70C217"/>
<circle cx="321.497" cy="122.476" r="2.71314" transform="rotate(-90 321.497 122.476)" fill="#70C217"/>
<circle cx="321.497" cy="82.6828" r="2.71314" transform="rotate(-90 321.497 82.6828)" fill="#70C217"/>
<circle cx="321.497" cy="42.8901" r="2.71314" transform="rotate(-90 321.497 42.8901)" fill="#70C217"/>
<circle cx="321.497" cy="3.09747" r="2.71314" transform="rotate(-90 321.497 3.09747)" fill="#70C217"/>
<circle cx="361.29" cy="162.268" r="2.71314" transform="rotate(-90 361.29 162.268)" fill="#70C217"/>
<circle cx="361.29" cy="122.476" r="2.71314" transform="rotate(-90 361.29 122.476)" fill="#70C217"/>
<circle cx="361.29" cy="82.6828" r="2.71314" transform="rotate(-90 361.29 82.6828)" fill="#70C217"/>
<circle cx="361.29" cy="42.8901" r="2.71314" transform="rotate(-90 361.29 42.8901)" fill="#70C217"/>
<circle cx="361.29" cy="3.09744" r="2.71314" transform="rotate(-90 361.29 3.09744)" fill="#70C217"/>
</svg>
