<svg width="297" height="296" viewBox="0 0 297 296" fill="none" xmlns="http://www.w3.org/2000/svg">
<g opacity="0.1" clip-path="url(#clip0)">
<path d="M69.151 216.047L15.3788 162.274C7.40635 154.302 7.40089 141.381 15.3667 133.416L69.454 79.3282C71.4455 77.3367 74.6756 77.3381 76.6687 79.3312L105.54 108.202C107.533 110.195 107.534 113.425 105.543 115.417L84.2684 136.691C78.294 142.666 78.2981 152.356 84.2775 158.335L105.57 179.628C107.563 181.621 107.564 184.851 105.573 186.842L76.3657 216.05C74.3743 218.041 71.1441 218.04 69.151 216.047Z" fill="white"/>
<path d="M79.9775 226.873L133.75 280.645C141.722 288.618 154.643 288.623 162.608 280.657L216.696 226.57C218.687 224.579 218.686 221.348 216.693 219.355L187.822 190.484C185.829 188.492 182.599 188.49 180.607 190.481L159.333 211.756C153.358 217.73 143.668 217.726 137.689 211.747L116.396 190.454C114.404 188.461 111.173 188.46 109.182 190.451L79.9745 219.658C77.983 221.65 77.9847 224.88 79.9775 226.873Z" fill="white"/>
<path d="M216.99 68.2077L163.217 14.4355C155.245 6.46304 142.325 6.45736 134.359 14.4233L80.2714 68.5107C78.2802 70.5018 78.2813 73.7323 80.2744 75.7254L109.145 104.596C111.138 106.589 114.369 106.591 116.36 104.599L137.634 83.325C143.609 77.3509 153.299 77.3548 159.279 83.3342L180.571 104.627C182.564 106.62 185.794 106.621 187.786 104.63L216.993 75.4224C218.984 73.4313 218.983 70.2008 216.99 68.2077Z" fill="white"/>
<path d="M227.817 79.0343L281.589 132.806C289.562 140.779 289.567 153.699 281.601 161.665L227.514 215.753C225.523 217.744 222.292 217.742 220.299 215.75L191.428 186.879C189.435 184.886 189.434 181.655 191.425 179.664L212.699 158.39C218.673 152.415 218.669 142.725 212.69 136.745L191.398 115.453C189.405 113.46 189.404 110.23 191.395 108.238L220.602 79.0312C222.593 77.0401 225.824 77.0414 227.817 79.0343Z" fill="white"/>
</g>
<defs>
<clipPath id="clip0">
<rect width="209.076" height="208.232" fill="white" transform="translate(0.943359 147.839) rotate(-45)"/>
</clipPath>
</defs>
</svg>
