<svg width="166" height="365" viewBox="0 0 166 365" fill="none" xmlns="http://www.w3.org/2000/svg">
<circle cx="162.382" cy="361.714" r="2.71314" transform="rotate(-180 162.382 361.714)" fill="#70C217"/>
<circle cx="122.59" cy="361.714" r="2.71314" transform="rotate(-180 122.59 361.714)" fill="#70C217"/>
<circle cx="82.7966" cy="361.714" r="2.71314" transform="rotate(-180 82.7966 361.714)" fill="#70C217"/>
<circle cx="43.0042" cy="361.714" r="2.71314" transform="rotate(-180 43.0042 361.714)" fill="#70C217"/>
<circle cx="3.21118" cy="361.714" r="2.71314" transform="rotate(-180 3.21118 361.714)" fill="#70C217"/>
<circle cx="162.382" cy="321.921" r="2.71314" transform="rotate(-180 162.382 321.921)" fill="#70C217"/>
<circle cx="122.59" cy="321.921" r="2.71314" transform="rotate(-180 122.59 321.921)" fill="#70C217"/>
<circle cx="82.7966" cy="321.921" r="2.71314" transform="rotate(-180 82.7966 321.921)" fill="#70C217"/>
<circle cx="43.0042" cy="321.921" r="2.71314" transform="rotate(-180 43.0042 321.921)" fill="#70C217"/>
<circle cx="3.21118" cy="321.921" r="2.71314" transform="rotate(-180 3.21118 321.921)" fill="#70C217"/>
<circle cx="162.382" cy="282.128" r="2.71314" transform="rotate(-180 162.382 282.128)" fill="#70C217"/>
<circle cx="122.59" cy="282.128" r="2.71314" transform="rotate(-180 122.59 282.128)" fill="#70C217"/>
<circle cx="82.7966" cy="282.128" r="2.71314" transform="rotate(-180 82.7966 282.128)" fill="#70C217"/>
<circle cx="43.0042" cy="282.128" r="2.71314" transform="rotate(-180 43.0042 282.128)" fill="#70C217"/>
<circle cx="3.21118" cy="282.128" r="2.71314" transform="rotate(-180 3.21118 282.128)" fill="#70C217"/>
<circle cx="162.382" cy="242.336" r="2.71314" transform="rotate(-180 162.382 242.336)" fill="#70C217"/>
<circle cx="122.59" cy="242.336" r="2.71314" transform="rotate(-180 122.59 242.336)" fill="#70C217"/>
<circle cx="82.7966" cy="242.336" r="2.71314" transform="rotate(-180 82.7966 242.336)" fill="#70C217"/>
<circle cx="43.0042" cy="242.336" r="2.71314" transform="rotate(-180 43.0042 242.336)" fill="#70C217"/>
<circle cx="3.21118" cy="242.336" r="2.71314" transform="rotate(-180 3.21118 242.336)" fill="#70C217"/>
<circle cx="162.382" cy="202.543" r="2.71314" transform="rotate(-180 162.382 202.543)" fill="#70C217"/>
<circle cx="122.59" cy="202.543" r="2.71314" transform="rotate(-180 122.59 202.543)" fill="#70C217"/>
<circle cx="82.7966" cy="202.543" r="2.71314" transform="rotate(-180 82.7966 202.543)" fill="#70C217"/>
<circle cx="43.0042" cy="202.543" r="2.71314" transform="rotate(-180 43.0042 202.543)" fill="#70C217"/>
<circle cx="3.21118" cy="202.543" r="2.71314" transform="rotate(-180 3.21118 202.543)" fill="#70C217"/>
<circle cx="162.382" cy="162.75" r="2.71314" transform="rotate(-180 162.382 162.75)" fill="#70C217"/>
<circle cx="122.59" cy="162.75" r="2.71314" transform="rotate(-180 122.59 162.75)" fill="#70C217"/>
<circle cx="82.7966" cy="162.75" r="2.71314" transform="rotate(-180 82.7966 162.75)" fill="#70C217"/>
<circle cx="43.0042" cy="162.75" r="2.71314" transform="rotate(-180 43.0042 162.75)" fill="#70C217"/>
<circle cx="3.21118" cy="162.75" r="2.71314" transform="rotate(-180 3.21118 162.75)" fill="#70C217"/>
<circle cx="162.382" cy="122.958" r="2.71314" transform="rotate(-180 162.382 122.958)" fill="#70C217"/>
<circle cx="122.59" cy="122.958" r="2.71314" transform="rotate(-180 122.59 122.958)" fill="#70C217"/>
<circle cx="82.7966" cy="122.958" r="2.71314" transform="rotate(-180 82.7966 122.958)" fill="#70C217"/>
<circle cx="43.0042" cy="122.958" r="2.71314" transform="rotate(-180 43.0042 122.958)" fill="#70C217"/>
<circle cx="3.21118" cy="122.958" r="2.71314" transform="rotate(-180 3.21118 122.958)" fill="#70C217"/>
<circle cx="162.382" cy="83.1651" r="2.71314" transform="rotate(-180 162.382 83.1651)" fill="#70C217"/>
<circle cx="122.59" cy="83.1651" r="2.71314" transform="rotate(-180 122.59 83.1651)" fill="#70C217"/>
<circle cx="82.7966" cy="83.1651" r="2.71314" transform="rotate(-180 82.7966 83.1651)" fill="#70C217"/>
<circle cx="43.0042" cy="83.1651" r="2.71314" transform="rotate(-180 43.0042 83.1651)" fill="#70C217"/>
<circle cx="3.21118" cy="83.1651" r="2.71314" transform="rotate(-180 3.21118 83.1651)" fill="#70C217"/>
<circle cx="162.382" cy="43.3724" r="2.71314" transform="rotate(-180 162.382 43.3724)" fill="#70C217"/>
<circle cx="122.59" cy="43.3725" r="2.71314" transform="rotate(-180 122.59 43.3725)" fill="#70C217"/>
<circle cx="82.7966" cy="43.3725" r="2.71314" transform="rotate(-180 82.7966 43.3725)" fill="#70C217"/>
<circle cx="43.0042" cy="43.3725" r="2.71314" transform="rotate(-180 43.0042 43.3725)" fill="#70C217"/>
<circle cx="3.21118" cy="43.3724" r="2.71314" transform="rotate(-180 3.21118 43.3724)" fill="#70C217"/>
<circle cx="162.382" cy="3.57977" r="2.71314" transform="rotate(-180 162.382 3.57977)" fill="#70C217"/>
<circle cx="122.59" cy="3.57977" r="2.71314" transform="rotate(-180 122.59 3.57977)" fill="#70C217"/>
<circle cx="82.7966" cy="3.57977" r="2.71314" transform="rotate(-180 82.7966 3.57977)" fill="#70C217"/>
<circle cx="43.0042" cy="3.57979" r="2.71314" transform="rotate(-180 43.0042 3.57979)" fill="#70C217"/>
<circle cx="3.21118" cy="3.57979" r="2.71314" transform="rotate(-180 3.21118 3.57979)" fill="#70C217"/>
</svg>
