<svg width="337" height="79" viewBox="0 0 337 79" fill="none" xmlns="http://www.w3.org/2000/svg">
<g opacity="0.1">
<path d="M54.6328 25.9163C53.2576 23.383 51.2672 21.465 48.6615 20.1622C46.1283 18.7869 43.1245 18.0993 39.6503 18.0993C33.6428 18.0993 28.8296 20.0898 25.2106 24.0707C21.5916 27.9791 19.7822 33.2267 19.7822 39.8132C19.7822 46.834 21.664 52.3348 25.4277 56.3157C29.2639 60.2242 34.5114 62.1784 41.1703 62.1784C45.7302 62.1784 49.5663 61.0204 52.6786 58.7042C55.8633 56.3881 58.1794 53.0586 59.627 48.7159H36.0675V35.0361H76.4553V52.2986C75.08 56.9309 72.7277 61.2375 69.3983 65.2184C66.1412 69.1992 61.9794 72.4201 56.9128 74.881C51.8462 77.3419 46.1283 78.5724 39.7589 78.5724C32.2314 78.5724 25.5001 76.9438 19.565 73.6868C13.7023 70.3573 9.10618 65.7612 5.77673 59.8985C2.51965 54.0357 0.891113 47.3406 0.891113 39.8132C0.891113 32.2857 2.51965 25.5906 5.77673 19.7279C9.10618 13.7928 13.7023 9.19667 19.565 5.9396C25.4277 2.61014 32.1228 0.945415 39.6503 0.945415C48.7701 0.945415 56.4423 3.15299 62.667 7.56813C68.964 11.9833 73.1258 18.0993 75.1524 25.9163H54.6328Z" fill="white"/>
<path d="M117.394 78.7895C110.228 78.7895 103.642 77.1248 97.6342 73.7953C91.6991 70.4659 86.9582 65.8336 83.4116 59.8985C79.9374 53.891 78.2003 47.1597 78.2003 39.7046C78.2003 32.2495 79.9374 25.5544 83.4116 19.6193C86.9582 13.6842 91.6991 9.05192 97.6342 5.72246C103.642 2.39301 110.228 0.728279 117.394 0.728279C124.559 0.728279 131.11 2.39301 137.045 5.72246C143.052 9.05192 147.757 13.6842 151.159 19.6193C154.633 25.5544 156.37 32.2495 156.37 39.7046C156.37 47.1597 154.633 53.891 151.159 59.8985C147.685 65.8336 142.98 70.4659 137.045 73.7953C131.11 77.1248 124.559 78.7895 117.394 78.7895ZM117.394 61.8527C123.474 61.8527 128.323 59.8261 131.942 55.7728C135.633 51.7196 137.479 46.3635 137.479 39.7046C137.479 32.9733 135.633 27.6172 131.942 23.6364C128.323 19.5831 123.474 17.5565 117.394 17.5565C111.242 17.5565 106.32 19.5469 102.628 23.5278C99.0094 27.5087 97.1999 32.9009 97.1999 39.7046C97.1999 46.4359 99.0094 51.8282 102.628 55.8814C106.32 59.8623 111.242 61.8527 117.394 61.8527Z" fill="white"/>
<path d="M176 63.6984H200.32V78.0295H157.435V1.81397H176V63.6984Z" fill="white"/>
<path d="M231.591 1.81397C239.625 1.81397 246.646 3.40632 252.653 6.59101C258.66 9.77571 263.293 14.2632 266.55 20.0536C269.879 25.7716 271.544 32.3943 271.544 39.9217C271.544 47.3768 269.879 53.9995 266.55 59.7899C263.293 65.5803 258.624 70.0678 252.544 73.2525C246.537 76.4372 239.552 78.0295 231.591 78.0295H203.037V1.81397H231.591ZM230.396 61.9613C237.417 61.9613 242.882 60.0432 246.79 56.2071C250.699 52.371 252.653 46.9426 252.653 39.9217C252.653 32.9009 250.699 27.4363 246.79 23.5278C242.882 19.6193 237.417 17.6651 230.396 17.6651H221.602V61.9613H230.396Z" fill="white"/>
<path d="M339.605 1.81397L312.572 78.0295H289.338L262.304 1.81397H282.064L300.955 59.3556L319.954 1.81397H339.605Z" fill="white"/>
<path d="M360.949 1.81397V78.0295H342.383V1.81397H360.949Z" fill="white"/>
<path d="M432.602 63.6984H456.921V78.0295H414.037V1.81397H432.602V63.6984Z" fill="white"/>
<path d="M484.342 63.6984H508.661V78.0295H465.777V1.81397H484.342V63.6984Z" fill="white"/>
<path d="M536.082 16.6879V32.1048H560.944V46.4359H536.082V63.1555H564.201V78.0295H517.517V1.81397H564.201V16.6879H536.082Z" fill="white"/>
</g>
</svg>
