<svg width="220" height="141" viewBox="0 0 220 141" fill="none" xmlns="http://www.w3.org/2000/svg">
<circle cx="216.692" cy="4.01059" r="3.03671" transform="rotate(90 216.692 4.01059)" fill="#70C217"/>
<circle cx="216.692" cy="48.5487" r="3.03671" transform="rotate(90 216.692 48.5487)" fill="#70C217"/>
<circle cx="216.692" cy="93.0872" r="3.03671" transform="rotate(90 216.692 93.0872)" fill="#70C217"/>
<circle cx="216.692" cy="137.626" r="3.03671" transform="rotate(90 216.692 137.626)" fill="#70C217"/>
<circle cx="172.153" cy="4.01034" r="3.03671" transform="rotate(90 172.153 4.01034)" fill="#70C217"/>
<circle cx="172.153" cy="48.5487" r="3.03671" transform="rotate(90 172.153 48.5487)" fill="#70C217"/>
<circle cx="172.153" cy="93.0872" r="3.03671" transform="rotate(90 172.153 93.0872)" fill="#70C217"/>
<circle cx="172.153" cy="137.626" r="3.03671" transform="rotate(90 172.153 137.626)" fill="#70C217"/>
<circle cx="127.615" cy="4.01034" r="3.03671" transform="rotate(90 127.615 4.01034)" fill="#70C217"/>
<circle cx="127.615" cy="48.5487" r="3.03671" transform="rotate(90 127.615 48.5487)" fill="#70C217"/>
<circle cx="127.615" cy="93.0872" r="3.03671" transform="rotate(90 127.615 93.0872)" fill="#70C217"/>
<circle cx="127.615" cy="137.626" r="3.03671" transform="rotate(90 127.615 137.626)" fill="#70C217"/>
<circle cx="83.0766" cy="4.01034" r="3.03671" transform="rotate(90 83.0766 4.01034)" fill="#70C217"/>
<circle cx="83.0766" cy="48.5487" r="3.03671" transform="rotate(90 83.0766 48.5487)" fill="#70C217"/>
<circle cx="83.0766" cy="93.0872" r="3.03671" transform="rotate(90 83.0766 93.0872)" fill="#70C217"/>
<circle cx="83.0766" cy="137.626" r="3.03671" transform="rotate(90 83.0766 137.626)" fill="#70C217"/>
<circle cx="38.538" cy="4.01034" r="3.03671" transform="rotate(90 38.538 4.01034)" fill="#70C217"/>
<circle cx="38.538" cy="48.5487" r="3.03671" transform="rotate(90 38.538 48.5487)" fill="#70C217"/>
<circle cx="38.538" cy="93.0872" r="3.03671" transform="rotate(90 38.538 93.0872)" fill="#70C217"/>
<circle cx="38.538" cy="137.626" r="3.03671" transform="rotate(90 38.538 137.626)" fill="#70C217"/>
</svg>
