<svg width="397" height="185" viewBox="0 0 397 185" fill="none" xmlns="http://www.w3.org/2000/svg">
<circle cx="359.425" cy="3.24179" r="3.03671" transform="rotate(90 359.425 3.24179)" fill="#EF4358"/>
<circle cx="359.425" cy="47.7804" r="3.03671" transform="rotate(90 359.425 47.7804)" fill="#EF4358"/>
<circle cx="359.425" cy="92.3187" r="3.03671" transform="rotate(90 359.425 92.3187)" fill="#EF4358"/>
<circle cx="359.425" cy="136.857" r="3.03671" transform="rotate(90 359.425 136.857)" fill="#EF4358"/>
<circle cx="359.425" cy="181.396" r="3.03671" transform="rotate(90 359.425 181.396)" fill="#EF4358"/>
<circle cx="314.887" cy="3.24179" r="3.03671" transform="rotate(90 314.887 3.24179)" fill="#EF4358"/>
<circle cx="314.887" cy="47.7804" r="3.03671" transform="rotate(90 314.887 47.7804)" fill="#EF4358"/>
<circle cx="314.887" cy="92.3187" r="3.03671" transform="rotate(90 314.887 92.3187)" fill="#EF4358"/>
<circle cx="314.887" cy="136.857" r="3.03671" transform="rotate(90 314.887 136.857)" fill="#EF4358"/>
<circle cx="314.887" cy="181.396" r="3.03671" transform="rotate(90 314.887 181.396)" fill="#EF4358"/>
<circle cx="270.348" cy="3.24179" r="3.03671" transform="rotate(90 270.348 3.24179)" fill="#EF4358"/>
<circle cx="270.348" cy="47.7804" r="3.03671" transform="rotate(90 270.348 47.7804)" fill="#EF4358"/>
<circle cx="270.348" cy="92.3187" r="3.03671" transform="rotate(90 270.348 92.3187)" fill="#EF4358"/>
<circle cx="270.348" cy="136.857" r="3.03671" transform="rotate(90 270.348 136.857)" fill="#EF4358"/>
<circle cx="270.348" cy="181.396" r="3.03671" transform="rotate(90 270.348 181.396)" fill="#EF4358"/>
<circle cx="225.809" cy="3.24179" r="3.03671" transform="rotate(90 225.809 3.24179)" fill="#EF4358"/>
<circle cx="225.809" cy="47.7804" r="3.03671" transform="rotate(90 225.809 47.7804)" fill="#EF4358"/>
<circle cx="225.809" cy="92.3187" r="3.03671" transform="rotate(90 225.809 92.3187)" fill="#EF4358"/>
<circle cx="225.809" cy="136.857" r="3.03671" transform="rotate(90 225.809 136.857)" fill="#EF4358"/>
<circle cx="225.809" cy="181.396" r="3.03671" transform="rotate(90 225.809 181.396)" fill="#EF4358"/>
<circle cx="181.271" cy="3.24179" r="3.03671" transform="rotate(90 181.271 3.24179)" fill="#EF4358"/>
<circle cx="181.271" cy="47.7804" r="3.03671" transform="rotate(90 181.271 47.7804)" fill="#EF4358"/>
<circle cx="181.271" cy="92.3187" r="3.03671" transform="rotate(90 181.271 92.3187)" fill="#EF4358"/>
<circle cx="181.271" cy="136.857" r="3.03671" transform="rotate(90 181.271 136.857)" fill="#EF4358"/>
<circle cx="181.271" cy="181.396" r="3.03671" transform="rotate(90 181.271 181.396)" fill="#EF4358"/>
<circle cx="136.733" cy="3.24179" r="3.03671" transform="rotate(90 136.733 3.24179)" fill="#EF4358"/>
<circle cx="136.733" cy="47.7804" r="3.03671" transform="rotate(90 136.733 47.7804)" fill="#EF4358"/>
<circle cx="136.733" cy="92.3187" r="3.03671" transform="rotate(90 136.733 92.3187)" fill="#EF4358"/>
<circle cx="136.733" cy="136.857" r="3.03671" transform="rotate(90 136.733 136.857)" fill="#EF4358"/>
<circle cx="136.733" cy="181.396" r="3.03671" transform="rotate(90 136.733 181.396)" fill="#EF4358"/>
<circle cx="92.1942" cy="47.7804" r="3.03671" transform="rotate(90 92.1942 47.7804)" fill="#EF4358"/>
<circle cx="92.1942" cy="92.3187" r="3.03671" transform="rotate(90 92.1942 92.3187)" fill="#EF4358"/>
<circle cx="92.1942" cy="136.857" r="3.03671" transform="rotate(90 92.1942 136.857)" fill="#EF4358"/>
<circle cx="92.1942" cy="181.396" r="3.03671" transform="rotate(90 92.1942 181.396)" fill="#EF4358"/>
<circle cx="47.6557" cy="3.24179" r="3.03671" transform="rotate(90 47.6557 3.24179)" fill="#EF4358"/>
<circle cx="47.6557" cy="47.7804" r="3.03671" transform="rotate(90 47.6557 47.7804)" fill="#EF4358"/>
<circle cx="47.6557" cy="92.3187" r="3.03671" transform="rotate(90 47.6557 92.3187)" fill="#EF4358"/>
<circle cx="47.6562" cy="136.857" r="3.03671" transform="rotate(90 47.6562 136.857)" fill="#EF4358"/>
<circle cx="47.6562" cy="181.396" r="3.03671" transform="rotate(90 47.6562 181.396)" fill="#EF4358"/>
<circle cx="3.11759" cy="3.24179" r="3.03671" transform="rotate(90 3.11759 3.24179)" fill="#EF4358"/>
<circle cx="3.11759" cy="47.7804" r="3.03671" transform="rotate(90 3.11759 47.7804)" fill="#EF4358"/>
<circle cx="3.11759" cy="92.3187" r="3.03671" transform="rotate(90 3.11759 92.3187)" fill="#EF4358"/>
<circle cx="3.11759" cy="136.857" r="3.03671" transform="rotate(90 3.11759 136.857)" fill="#EF4358"/>
<circle cx="3.11759" cy="181.396" r="3.03671" transform="rotate(90 3.11759 181.396)" fill="#EF4358"/>
</svg>
