<svg width="640" height="826" viewBox="0 0 640 826" fill="none" xmlns="http://www.w3.org/2000/svg">
<g opacity="0.6" clip-path="url(#clip0)">
<path d="M213.612 577.612L45.2089 409.209C20.2407 384.241 20.2236 343.777 45.1707 318.829L214.561 149.439C220.798 143.202 230.914 143.207 237.156 149.449L327.574 239.866C333.816 246.108 333.82 256.225 327.583 262.461L260.956 329.088C242.246 347.799 242.259 378.147 260.985 396.873L327.668 463.556C333.91 469.798 333.914 479.914 327.678 486.151L236.207 577.622C229.97 583.858 219.854 583.854 213.612 577.612Z" fill="white"/>
<path d="M247.519 611.519L415.922 779.922C440.891 804.891 481.355 804.907 506.302 779.96L675.692 610.57C681.929 604.333 681.924 594.216 675.682 587.975L585.265 497.557C579.024 491.316 568.907 491.311 562.67 497.548L496.043 564.174C477.333 582.885 446.984 582.871 428.258 564.146L361.575 497.463C355.334 491.222 345.217 491.216 338.98 497.453L247.509 588.924C241.273 595.161 241.278 605.278 247.519 611.519Z" fill="white"/>
<path d="M676.612 114.612L508.208 -53.7909C483.24 -78.7591 442.777 -78.7769 417.829 -53.8291L248.439 115.561C242.203 121.797 242.206 131.914 248.448 138.156L338.866 228.574C345.108 234.816 355.225 234.819 361.461 228.583L428.088 161.956C446.797 143.247 477.146 143.259 495.872 161.985L562.555 228.668C568.797 234.91 578.915 234.914 585.15 228.678L676.621 137.207C682.857 130.971 682.854 120.854 676.612 114.612Z" fill="white"/>
<path d="M710.519 148.519L878.922 316.922C903.891 341.891 903.908 382.354 878.96 407.301L709.57 576.692C703.334 582.928 693.216 582.923 686.975 576.682L596.557 486.264C590.316 480.023 590.312 469.905 596.548 463.67L663.175 397.043C681.884 378.333 681.872 347.983 663.146 329.258L596.463 262.575C590.222 256.334 590.218 246.216 596.453 239.98L687.924 148.509C694.16 142.273 704.278 142.278 710.519 148.519Z" fill="white"/>
</g>
<defs>
<clipPath id="clip0">
<rect width="654.781" height="652.137" fill="white" transform="translate(0 364) rotate(-45)"/>
</clipPath>
</defs>
</svg>
