<svg width="217" height="134" viewBox="0 0 217 134" fill="none" xmlns="http://www.w3.org/2000/svg">
<circle cx="213.995" cy="3.67232" r="2.87886" transform="rotate(90 213.995 3.67232)" fill="#70C217"/>
<circle cx="213.995" cy="45.8955" r="2.87886" transform="rotate(90 213.995 45.8955)" fill="#70C217"/>
<circle cx="213.995" cy="88.1186" r="2.87886" transform="rotate(90 213.995 88.1186)" fill="#70C217"/>
<circle cx="213.995" cy="130.342" r="2.87886" transform="rotate(90 213.995 130.342)" fill="#70C217"/>
<circle cx="171.772" cy="3.67207" r="2.87886" transform="rotate(90 171.772 3.67207)" fill="#70C217"/>
<circle cx="171.772" cy="45.8955" r="2.87886" transform="rotate(90 171.772 45.8955)" fill="#70C217"/>
<circle cx="171.772" cy="88.1186" r="2.87886" transform="rotate(90 171.772 88.1186)" fill="#70C217"/>
<circle cx="171.772" cy="130.342" r="2.87886" transform="rotate(90 171.772 130.342)" fill="#70C217"/>
<circle cx="129.549" cy="3.67207" r="2.87886" transform="rotate(90 129.549 3.67207)" fill="#70C217"/>
<circle cx="129.549" cy="45.8955" r="2.87886" transform="rotate(90 129.549 45.8955)" fill="#70C217"/>
<circle cx="129.549" cy="88.1186" r="2.87886" transform="rotate(90 129.549 88.1186)" fill="#70C217"/>
<circle cx="129.549" cy="130.342" r="2.87886" transform="rotate(90 129.549 130.342)" fill="#70C217"/>
<circle cx="87.3252" cy="3.67207" r="2.87886" transform="rotate(90 87.3252 3.67207)" fill="#70C217"/>
<circle cx="87.3252" cy="45.8955" r="2.87886" transform="rotate(90 87.3252 45.8955)" fill="#70C217"/>
<circle cx="87.3252" cy="88.1186" r="2.87886" transform="rotate(90 87.3252 88.1186)" fill="#70C217"/>
<circle cx="87.3252" cy="130.342" r="2.87886" transform="rotate(90 87.3252 130.342)" fill="#70C217"/>
<circle cx="45.1021" cy="3.67207" r="2.87886" transform="rotate(90 45.1021 3.67207)" fill="#70C217"/>
<circle cx="45.1021" cy="45.8955" r="2.87886" transform="rotate(90 45.1021 45.8955)" fill="#70C217"/>
<circle cx="45.1021" cy="88.1186" r="2.87886" transform="rotate(90 45.1021 88.1186)" fill="#70C217"/>
<circle cx="45.1021" cy="130.342" r="2.87886" transform="rotate(90 45.1021 130.342)" fill="#70C217"/>
<circle cx="2.87895" cy="3.67207" r="2.87886" transform="rotate(90 2.87895 3.67207)" fill="#70C217"/>
<circle cx="2.87895" cy="45.8955" r="2.87886" transform="rotate(90 2.87895 45.8955)" fill="#70C217"/>
<circle cx="2.87895" cy="88.1186" r="2.87886" transform="rotate(90 2.87895 88.1186)" fill="#70C217"/>
<circle cx="2.87895" cy="130.342" r="2.87886" transform="rotate(90 2.87895 130.342)" fill="#70C217"/>
</svg>
